<?xml version="1.0" encoding="utf-8"?>
<svg version="1.1" xmlns:xlink="http://www.w3.org/1999/xlink" width="31px" height="26px" xmlns="http://www.w3.org/2000/svg">
  <g transform="matrix(1 0 0 1 -359 -3116 )">
    <path d="M 12.2143229166667 11.8203125  C 13.1238715277778 10.9401041666667  14.2190972222222 10.5  15.5 10.5  C 16.7809027777778 10.5  17.8761284722222 10.9401041666667  18.7856770833333 11.8203125  C 19.6952256944444 12.7005208333333  20.15 13.7604166666667  20.15 15  C 20.15 16.2395833333333  19.6952256944444 17.2994791666667  18.7856770833333 18.1796875  C 17.8761284722222 19.0598958333333  16.7809027777778 19.5  15.5 19.5  C 14.2190972222222 19.5  13.1238715277778 19.0598958333333  12.2143229166667 18.1796875  C 11.3047743055556 17.2994791666667  10.85 16.2395833333333  10.85 15  C 10.85 13.7604166666667  11.3047743055556 12.7005208333333  12.2143229166667 11.8203125  Z M 23.25 4  L 26.8666666666667 4  C 28.0076388888889 4  28.9817708333333 4.390625  29.7890625 5.171875  C 30.5963541666667 5.953125  31 6.89583333333333  31 8  L 31 22  C 31 23.1041666666667  30.5963541666667 24.046875  29.7890625 24.828125  C 28.9817708333333 25.609375  28.0076388888889 26  26.8666666666667 26  L 4.13333333333333 26  C 2.99236111111111 26  2.01822916666667 25.609375  1.2109375 24.828125  C 0.403645833333333 24.046875  0 23.1041666666667  0 22  L 0 8  C 0 6.89583333333333  0.403645833333333 5.953125  1.2109375 5.171875  C 2.01822916666667 4.390625  2.99236111111111 4  4.13333333333333 4  L 7.75 4  L 8.5734375 1.875  C 8.77795138888889 1.36458333333333  9.15199652777778 0.924479166666665  9.69557291666667 0.554687499999999  C 10.2391493055556 0.184895833333336  10.7961805555556 0  11.3666666666667 0  L 19.6333333333333 0  C 20.2038194444444 0  20.7608506944444 0.184895833333336  21.3044270833333 0.554687499999999  C 21.8480034722222 0.924479166666665  22.2220486111111 1.36458333333333  22.4265625 1.875  L 23.25 4  Z M 10.38984375 19.9453125  C 11.8052951388889 21.3151041666667  13.5086805555556 22  15.5 22  C 17.4913194444444 22  19.1947048611111 21.3151041666667  20.61015625 19.9453125  C 22.0256076388889 18.5755208333333  22.7333333333333 16.9270833333333  22.7333333333333 15  C 22.7333333333333 13.0729166666667  22.0256076388889 11.4244791666667  20.61015625 10.0546875  C 19.1947048611111 8.68489583333333  17.4913194444444 8  15.5 8  C 13.5086805555556 8  11.8052951388889 8.68489583333333  10.38984375 10.0546875  C 8.97439236111111 11.4244791666667  8.26666666666667 13.0729166666667  8.26666666666667 15  C 8.26666666666667 16.9270833333333  8.97439236111111 18.5755208333333  10.38984375 19.9453125  Z " fill-rule="nonzero" fill="#333333" stroke="none" transform="matrix(1 0 0 1 359 3116 )" />
  </g>
</svg>