<?xml version="1.0" encoding="utf-8"?>
<svg version="1.1" xmlns:xlink="http://www.w3.org/1999/xlink" width="16px" height="30px" xmlns="http://www.w3.org/2000/svg">
  <g transform="matrix(1 0 0 1 -475 -4908 )">
    <path d="M 15.1804008908686 7.62620192307692  C 15.4060876020787 7.62620192307692  15.6080178173719 7.71634615384615  15.7861915367483 7.89663461538462  C 16 8.13701923076923  16.0415738678545 8.40144230769231  15.9109131403118 8.68990384615385  L 6.28953229398664 29.5492788461538  C 6.1351150705271 29.8497596153846  5.88567186340015 30  5.54120267260579 30  C 5.49368968077209 30  5.4105419450631 29.9879807692308  5.29175946547884 29.9639423076923  C 5.0898292501856 29.9038461538462  4.93838158871566 29.7896634615385  4.83741648106904 29.6213942307692  C 4.73645137342242 29.453125  4.70972531551596 29.2728365384615  4.75723830734967 29.0805288461538  L 8.26726057906459 14.5132211538462  L 1.03340757238307 16.3341346153846  C 0.985894580549369 16.3461538461538  0.914625092798812 16.3521634615385  0.819599109131403 16.3521634615385  C 0.605790645879733 16.3521634615385  0.421677802524128 16.2860576923077  0.267260579064588 16.1538461538462  C 0.0534521158129176 15.9735576923077  -0.0237564959168523 15.7391826923077  0.0356347438752784 15.4507211538462  L 3.61692650334076 0.576923076923078  C 3.66443949517446 0.408653846153845  3.75946547884187 0.270432692307694  3.90200445434298 0.162259615384616  C 4.0445434298441 0.0540865384615374  4.21083890126206 0  4.40089086859688 0  L 10.2449888641425 0  C 10.4706755753526 0  10.6607275426875 0.0751201923076883  10.815144766147 0.225360576923078  C 10.9695619896065 0.375600961538461  11.0467706013363 0.552884615384613  11.0467706013363 0.757211538461537  C 11.0467706013363 0.853365384615383  11.0170749814402 0.961538461538461  10.9576837416481 1.08173076923077  L 7.9109131403118 9.42908653846154  L 14.9665924276169 7.66225961538462  C 15.0616184112843 7.63822115384615  15.1328878990349 7.62620192307692  15.1804008908686 7.62620192307692  Z " fill-rule="nonzero" fill="#555555" stroke="none" transform="matrix(1 0 0 1 475 4908 )" />
  </g>
</svg>