<?xml version="1.0" encoding="utf-8"?>
<svg version="1.1" xmlns:xlink="http://www.w3.org/1999/xlink" width="16px" height="30px" xmlns="http://www.w3.org/2000/svg">
  <g transform="matrix(1 0 0 1 -475 -4946 )">
    <path d="M 15.1804008908686 7.62620192307691  C 15.4060876020787 7.62620192307691  15.6080178173719 7.71634615384619  15.7861915367483 7.89663461538453  C 16 8.13701923076928  16.0415738678545 8.40144230769238  15.9109131403118 8.68990384615381  L 11.7139199893928 17.7890815427616  L 6.28953229398667 29.5492788461538  C 6.13511507052715 29.8497596153845  5.88567186340015 30  5.54120267260578 30  C 5.49368968077204 30  5.41054194506307 29.9879807692307  5.29175946547889 29.9639423076924  C 5.08982925018563 29.9038461538462  4.93838158871563 29.7896634615386  4.837416481069 29.6213942307693  C 4.73645137342237 29.453125  4.70972531551593 29.2728365384614  4.75723830734967 29.0805288461538  L 8.26726057906455 14.5132211538462  L 1.03340757238311 16.3341346153845  C 0.98589458054937 16.3461538461538  0.914625092798815 16.3521634615386  0.819599109131445 16.3521634615386  C 0.605790645879779 16.3521634615386  0.421677802524073 16.2860576923076  0.267260579064555 16.1538461538462  C 0.0534521158128882 15.9735576923076  -0.0237564959168139 15.7391826923076  0.0356347438753346 15.4507211538462  L 3.61692650334078 0.576923076923094  C 3.66443949517441 0.408653846153811  3.75946547884189 0.270432692307622  3.902004454343 0.162259615384528  C 4.04454342984411 0.0540865384614335  4.21083890126204 0  4.40089086859689 0  L 10.2449888641426 0  C 10.4706755753526 0  10.6607275426875 0.0751201923076223  10.815144766147 0.225360576923094  C 10.9695619896065 0.375600961538566  11.0467706013363 0.552884615384528  11.0467706013363 0.757211538461434  C 11.0467706013363 0.853365384615472  11.0170749814403 0.961538461538567  10.9576837416481 1.08173076923072  L 7.91091314031178 9.42908653846143  L 14.9665924276169 7.66225961538453  C 15.0616184112844 7.63822115384619  15.1328878990349 7.62620192307691  15.1804008908686 7.62620192307691  Z " fill-rule="nonzero" fill="#555555" stroke="none" transform="matrix(1 0 0 1 475 4946 )" />
  </g>
</svg>