<?xml version="1.0" encoding="utf-8"?>
<svg version="1.1" xmlns:xlink="http://www.w3.org/1999/xlink" width="10px" height="9px" xmlns="http://www.w3.org/2000/svg">
  <g transform="matrix(1 0 0 1 -447 -3104 )">
    <path d="M 452 3104  C 454.8 3104  457 3105.98  457 3108.5  C 457 3111.02  454.8 3113  452 3113  C 449.2 3113  447 3111.02  447 3108.5  C 447 3105.98  449.2 3104  452 3104  Z " fill-rule="nonzero" fill="#ffffff" stroke="none" />
    <path d="M 452 3104.5  C 454.52 3104.5  456.5 3106.26  456.5 3108.5  C 456.5 3110.74  454.52 3112.5  452 3112.5  C 449.48 3112.5  447.5 3110.74  447.5 3108.5  C 447.5 3106.26  449.48 3104.5  452 3104.5  Z " stroke-width="1" stroke="#797979" fill="none" />
  </g>
</svg>