<?xml version="1.0" encoding="utf-8"?>
<svg version="1.1" xmlns:xlink="http://www.w3.org/1999/xlink" width="10px" height="9px" xmlns="http://www.w3.org/2000/svg">
  <g transform="matrix(1 0 0 1 -447 -3052 )">
    <path d="M 452 3052  C 454.8 3052  457 3053.98  457 3056.5  C 457 3059.02  454.8 3061  452 3061  C 449.2 3061  447 3059.02  447 3056.5  C 447 3053.98  449.2 3052  452 3052  Z " fill-rule="nonzero" fill="#ffffff" stroke="none" />
    <path d="M 452 3052.5  C 454.52 3052.5  456.5 3054.26  456.5 3056.5  C 456.5 3058.74  454.52 3060.5  452 3060.5  C 449.48 3060.5  447.5 3058.74  447.5 3056.5  C 447.5 3054.26  449.48 3052.5  452 3052.5  Z " stroke-width="1" stroke="#797979" fill="none" />
  </g>
</svg>