<?xml version="1.0" encoding="utf-8"?>
<svg version="1.1" xmlns:xlink="http://www.w3.org/1999/xlink" width="15px" height="15px" xmlns="http://www.w3.org/2000/svg">
  <g transform="matrix(1 0 0 1 -615 -3927 )">
    <path d="M 622.5 3929  C 625.58 3929  628 3931.42  628 3934.5  C 628 3937.58  625.58 3940  622.5 3940  C 619.42 3940  617 3937.58  617 3934.5  C 617 3931.42  619.42 3929  622.5 3929  Z " fill-rule="nonzero" fill="#ffffff" stroke="none" />
    <path d="M 622.5 3928.5  C 625.86 3928.5  628.5 3931.14  628.5 3934.5  C 628.5 3937.86  625.86 3940.5  622.5 3940.5  C 619.14 3940.5  616.5 3937.86  616.5 3934.5  C 616.5 3931.14  619.14 3928.5  622.5 3928.5  Z " stroke-width="3" stroke="#797979" fill="none" />
  </g>
</svg>