<?xml version="1.0" encoding="utf-8"?>
<svg version="1.1" xmlns:xlink="http://www.w3.org/1999/xlink" width="9px" height="9px" xmlns="http://www.w3.org/2000/svg">
  <g transform="matrix(1 0 0 1 -1117 -3239 )">
    <path d="M 1121.5 3239  C 1124.02 3239  1126 3240.98  1126 3243.5  C 1126 3246.02  1124.02 3248  1121.5 3248  C 1118.98 3248  1117 3246.02  1117 3243.5  C 1117 3240.98  1118.98 3239  1121.5 3239  Z " fill-rule="nonzero" fill="#ffffff" stroke="none" />
    <path d="M 1121.5 3239.5  C 1123.74 3239.5  1125.5 3241.26  1125.5 3243.5  C 1125.5 3245.74  1123.74 3247.5  1121.5 3247.5  C 1119.26 3247.5  1117.5 3245.74  1117.5 3243.5  C 1117.5 3241.26  1119.26 3239.5  1121.5 3239.5  Z " stroke-width="1" stroke="#797979" fill="none" />
  </g>
</svg>