<?xml version="1.0" encoding="utf-8"?>
<svg version="1.1" xmlns:xlink="http://www.w3.org/1999/xlink" width="3px" height="3px" xmlns="http://www.w3.org/2000/svg">
  <g transform="matrix(1 0 0 1 -1102 -3243 )">
    <path d="M 1103.5 3243  C 1104.34 3243  1105 3243.66  1105 3244.5  C 1105 3245.34  1104.34 3246  1103.5 3246  C 1102.66 3246  1102 3245.34  1102 3244.5  C 1102 3243.66  1102.66 3243  1103.5 3243  Z " fill-rule="nonzero" fill="#ffffff" stroke="none" />
    <path d="M 1103.5 3243.5  C 1104.06 3243.5  1104.5 3243.94  1104.5 3244.5  C 1104.5 3245.06  1104.06 3245.5  1103.5 3245.5  C 1102.94 3245.5  1102.5 3245.06  1102.5 3244.5  C 1102.5 3243.94  1102.94 3243.5  1103.5 3243.5  Z " stroke-width="1" stroke="#797979" fill="none" />
  </g>
</svg>