<?xml version="1.0" encoding="utf-8"?>
<svg version="1.1" xmlns:xlink="http://www.w3.org/1999/xlink" width="10px" height="10px" xmlns="http://www.w3.org/2000/svg">
  <g transform="matrix(1 0 0 1 -504 -3052 )">
    <path d="M 509 3052  C 511.8 3052  514 3054.2  514 3057  C 514 3059.8  511.8 3062  509 3062  C 506.2 3062  504 3059.8  504 3057  C 504 3054.2  506.2 3052  509 3052  Z " fill-rule="nonzero" fill="#ffffff" stroke="none" />
    <path d="M 509 3052.5  C 511.52 3052.5  513.5 3054.48  513.5 3057  C 513.5 3059.52  511.52 3061.5  509 3061.5  C 506.48 3061.5  504.5 3059.52  504.5 3057  C 504.5 3054.48  506.48 3052.5  509 3052.5  Z " stroke-width="1" stroke="#797979" fill="none" />
  </g>
</svg>