<?xml version="1.0" encoding="utf-8"?>
<svg version="1.1" xmlns:xlink="http://www.w3.org/1999/xlink" width="10px" height="10px" xmlns="http://www.w3.org/2000/svg">
  <g transform="matrix(1 0 0 1 -504 -3104 )">
    <path d="M 509 3104  C 511.8 3104  514 3106.2  514 3109  C 514 3111.8  511.8 3114  509 3114  C 506.2 3114  504 3111.8  504 3109  C 504 3106.2  506.2 3104  509 3104  Z " fill-rule="nonzero" fill="#ffffff" stroke="none" />
    <path d="M 509 3104.5  C 511.52 3104.5  513.5 3106.48  513.5 3109  C 513.5 3111.52  511.52 3113.5  509 3113.5  C 506.48 3113.5  504.5 3111.52  504.5 3109  C 504.5 3106.48  506.48 3104.5  509 3104.5  Z " stroke-width="1" stroke="#797979" fill="none" />
  </g>
</svg>