<?xml version="1.0" encoding="utf-8"?>
<svg version="1.1" xmlns:xlink="http://www.w3.org/1999/xlink" width="9px" height="9px" xmlns="http://www.w3.org/2000/svg">
  <g transform="matrix(1 0 0 1 -1148 -3291 )">
    <path d="M 1152.5 3291  C 1155.02 3291  1157 3292.98  1157 3295.5  C 1157 3298.02  1155.02 3300  1152.5 3300  C 1149.98 3300  1148 3298.02  1148 3295.5  C 1148 3292.98  1149.98 3291  1152.5 3291  Z " fill-rule="nonzero" fill="#ffffff" stroke="none" />
    <path d="M 1152.5 3291.5  C 1154.74 3291.5  1156.5 3293.26  1156.5 3295.5  C 1156.5 3297.74  1154.74 3299.5  1152.5 3299.5  C 1150.26 3299.5  1148.5 3297.74  1148.5 3295.5  C 1148.5 3293.26  1150.26 3291.5  1152.5 3291.5  Z " stroke-width="1" stroke="#797979" fill="none" />
  </g>
</svg>