<?xml version="1.0" encoding="utf-8"?>
<svg version="1.1" xmlns:xlink="http://www.w3.org/1999/xlink" width="3px" height="3px" xmlns="http://www.w3.org/2000/svg">
  <g transform="matrix(1 0 0 1 -1133 -3295 )">
    <path d="M 1134.5 3295  C 1135.34 3295  1136 3295.66  1136 3296.5  C 1136 3297.34  1135.34 3298  1134.5 3298  C 1133.66 3298  1133 3297.34  1133 3296.5  C 1133 3295.66  1133.66 3295  1134.5 3295  Z " fill-rule="nonzero" fill="#ffffff" stroke="none" />
    <path d="M 1134.5 3295.5  C 1135.06 3295.5  1135.5 3295.94  1135.5 3296.5  C 1135.5 3297.06  1135.06 3297.5  1134.5 3297.5  C 1133.94 3297.5  1133.5 3297.06  1133.5 3296.5  C 1133.5 3295.94  1133.94 3295.5  1134.5 3295.5  Z " stroke-width="1" stroke="#797979" fill="none" />
  </g>
</svg>