<?xml version="1.0" encoding="utf-8"?>
<svg version="1.1" xmlns:xlink="http://www.w3.org/1999/xlink" width="55px" height="10px" preserveAspectRatio="xMinYMid meet" viewBox="375 4609  55 8" xmlns="http://www.w3.org/2000/svg">
  <path d="M 430 4613  L 384 4613  A 4 4 0 0 0 380 4617 A 4 4 0 0 1 376 4621 L 352.5 4621  A 4.5 4.5 0 0 0 348 4625.5 L 348 4628  " stroke-width="2" stroke-dasharray="6,2" stroke="#0099cc" fill="none" />
  <path d="M 348 4623  A 3.5 3.5 0 0 0 344.5 4626.5 A 3.5 3.5 0 0 0 348 4630 A 3.5 3.5 0 0 0 351.5 4626.5 A 3.5 3.5 0 0 0 348 4623 Z " fill-rule="nonzero" fill="#0099cc" stroke="none" />
</svg>