<?xml version="1.0" encoding="utf-8"?>
<svg version="1.1" xmlns:xlink="http://www.w3.org/1999/xlink" width="16px" height="17px" xmlns="http://www.w3.org/2000/svg">
  <g transform="matrix(1 0 0 1 -339 -4548 )">
    <path d="M 1.61970443638393 13.87521918366  L 6.12315270647321 13.87521918366  L 6.12315270647321 15.4102863744703  L 0.118226590401786 15.4102863744703  L 0.118226590401786 1.58971362552966  L 6.12315270647321 1.58971362552966  L 6.12315270647321 3.12577440578655  L 1.61970443638393 3.12577440578655  L 1.61970443638393 13.8742255942135  Z M 9.87684729352678 13.8742255942135  L 9.87586208147321 13.87521918366  L 11.3783251116071 13.87521918366  L 11.3783251116071 15.4102863744703  L 9.87684729352678 15.4102863744703  L 9.87684729352678 13.8742255942135  Z M 12.1280788225446 13.87521918366  L 13.629556640625 13.87521918366  L 13.629556640625 15.4102863744703  L 12.1280788225446 15.4102863744703  L 12.1280788225446 13.8742255942135  Z M 15.8817734095982 15.4102863744703  L 14.3802955636161 15.4102863744703  L 14.3802955636161 13.8742255942135  L 15.8817734095982 13.8742255942135  L 15.8817734095982 15.4102863744703  Z M 15.8817734095982 10.0350672189486  L 14.3802955636161 10.0350672189486  L 14.3802955636161 8.5  L 15.8817734095982 8.5  L 15.8817734095982 10.0350672189486  Z M 15.8817734095982 12.3391583752648  L 14.3802955636161 12.3391583752648  L 14.3802955636161 10.8030975950079  L 15.8817734095982 10.8030975950079  L 15.8817734095982 12.3391583752648  Z M 15.8817734095982 7.73196959580244  L 14.3802955636161 7.73196959580244  L 14.3802955636161 6.19690240499206  L 15.8817734095982 6.19690240499206  L 15.8817734095982 7.73196959580244  Z M 15.8817734095982 5.42887200079449  L 14.3802955636161 5.42887200079449  L 14.3802955636161 3.89380478184587  L 15.8817734095982 3.89380478184587  L 15.8817734095982 5.42887200079449  Z M 15.8817734095982 3.12577440578655  L 14.3802955636161 3.12577440578655  L 14.3802955636161 1.58971362552966  L 15.8817734095982 1.58971362552966  L 15.8817734095982 3.12577440578655  Z M 13.629556640625 1.58971362552966  L 13.629556640625 3.12577440578655  L 12.1280788225446 3.12577440578655  L 12.1280788225446 1.58971362552966  L 13.629556640625 1.58971362552966  Z M 11.3783251116071 1.58971362552966  L 11.3783251116071 3.12577440578655  L 9.87684729352679 3.12577440578655  L 9.87684729352679 1.58971362552966  L 11.3783251116071 1.58971362552966  Z M 7.62463055245536 16.945353593419  L 7.62463055245536 0.0546464065810374  L 9 0.0546464065810374  L 9 16.945353593419  L 7.62463055245536 16.945353593419  Z " fill-rule="nonzero" fill="#aaaaaa" stroke="none" transform="matrix(1 0 0 1 339 4548 )" />
  </g>
</svg>