<?xml version="1.0" encoding="utf-8"?>
<svg version="1.1" xmlns:xlink="http://www.w3.org/1999/xlink" width="12px" height="13px" xmlns="http://www.w3.org/2000/svg">
  <g transform="matrix(1 0 0 1 -1233 -3300 )">
    <path d="M 1.21477832728795 10.6104617286811  L 4.59236452985491 10.6104617286811  L 4.59236452985491 11.7843366393008  L 0 11.7843366393008  L 0 1.21566336069915  L 4.59236452985491 1.21566336069915  L 4.59236452985491 2.39029807501324  L 1.21477832728795 2.39029807501324  L 1.21477832728795 10.6097019249868  Z M 7.40763547014509 10.6097019249868  L 7.40689656110491 10.6104617286811  L 8.53374383370536 10.6104617286811  L 8.53374383370536 11.7843366393008  L 7.40763547014509 11.7843366393008  L 7.40763547014509 10.6097019249868  Z M 9.09605911690848 10.6104617286811  L 10.2221674804687 10.6104617286811  L 10.2221674804687 11.7843366393008  L 9.09605911690848 11.7843366393008  L 9.09605911690848 10.6097019249868  Z M 11.9113300571987 11.7843366393008  L 10.7852216727121 11.7843366393008  L 10.7852216727121 10.6097019249868  L 11.9113300571987 10.6097019249868  L 11.9113300571987 11.7843366393008  Z M 11.9113300571987 7.67387493213718  L 10.7852216727121 7.67387493213718  L 10.7852216727121 6.5  L 11.9113300571987 6.5  L 11.9113300571987 7.67387493213718  Z M 11.9113300571987 9.43582699284958  L 10.7852216727121 9.43582699284958  L 10.7852216727121 8.26119227853549  L 11.9113300571987 8.26119227853549  L 11.9113300571987 9.43582699284958  Z M 11.9113300571987 5.91268263208422  L 10.7852216727121 5.91268263208422  L 10.7852216727121 4.73880772146451  L 11.9113300571987 4.73880772146451  L 11.9113300571987 5.91268263208422  Z M 11.9113300571987 4.15149035354873  L 10.7852216727121 4.15149035354873  L 10.7852216727121 2.97761542141155  L 11.9113300571987 2.97761542141155  L 11.9113300571987 4.15149035354873  Z M 11.9113300571987 2.39029807501324  L 10.7852216727121 2.39029807501324  L 10.7852216727121 1.21566336069915  L 11.9113300571987 1.21566336069915  L 11.9113300571987 2.39029807501324  Z M 10.2221674804687 1.21566336069915  L 10.2221674804688 2.39029807501324  L 9.09605911690848 2.39029807501324  L 9.09605911690848 1.21566336069915  L 10.2221674804687 1.21566336069915  Z M 8.53374383370536 1.21566336069915  L 8.53374383370536 2.39029807501324  L 7.40763547014509 2.39029807501324  L 7.40763547014509 1.21566336069915  L 8.53374383370536 1.21566336069915  Z M 5.71847291434152 12.958211571438  L 5.71847291434152 0.0417884285619698  L 6.84458127790179 0.0417884285619698  L 6.84458127790179 12.958211571438  L 5.71847291434152 12.958211571438  Z " fill-rule="nonzero" fill="#aaaaaa" stroke="none" transform="matrix(1 0 0 1 1233 3300 )" />
  </g>
</svg>