<?xml version="1.0" encoding="utf-8"?>
<svg version="1.1" xmlns:xlink="http://www.w3.org/1999/xlink" width="12px" height="11px" xmlns="http://www.w3.org/2000/svg">
  <g transform="matrix(1 0 0 1 -1145 -3028 )">
    <path d="M 11.8727678571429 3.650625  C 11.9575892857143 3.73770833333333  12 3.84083333333333  12 3.96  C 12 4.07916666666667  11.9575892857143 4.18229166666667  11.8727678571429 4.269375  L 8.44419642857143 7.789375  C 8.359375 7.87645833333333  8.25892857142857 7.92  8.14285714285714 7.92  C 8.02678571428572 7.92  7.92633928571429 7.87645833333333  7.84151785714286 7.789375  C 7.75669642857143 7.70229166666667  7.71428571428572 7.59916666666667  7.71428571428572 7.48  L 7.71428571428572 5.72  L 6.21428571428572 5.72  C 5.77678571428572 5.72  5.38504464285714 5.73375  5.0390625 5.76125  C 4.69308035714286 5.78875  4.34933035714286 5.83802083333333  4.0078125 5.9090625  C 3.66629464285714 5.98010416666667  3.36941964285714 6.0775  3.1171875 6.20125  C 2.86495535714286 6.325  2.62946428571429 6.48427083333333  2.41071428571429 6.6790625  C 2.19196428571429 6.87385416666667  2.01339285714286 7.1053125  1.875 7.3734375  C 1.73660714285714 7.6415625  1.62834821428571 7.95895833333333  1.55022321428571 8.325625  C 1.47209821428571 8.69229166666667  1.43303571428571 9.10708333333333  1.43303571428571 9.57  C 1.43303571428571 9.82208333333333  1.44419642857143 10.1039583333333  1.46651785714286 10.415625  C 1.46651785714286 10.443125  1.47209821428571 10.4969791666667  1.48325892857143 10.5771875  C 1.49441964285714 10.6573958333333  1.5 10.718125  1.5 10.759375  C 1.5 10.828125  1.48102678571429 10.8854166666667  1.44308035714286 10.93125  C 1.40513392857143 10.9770833333333  1.35267857142857 11  1.28571428571429 11  C 1.21428571428571 11  1.15178571428571 10.9610416666667  1.09821428571429 10.883125  C 1.06696428571429 10.841875  1.03794642857143 10.7914583333333  1.01116071428571 10.731875  C 0.984375 10.6722916666667  0.954241071428571 10.6035416666667  0.920758928571429 10.525625  C 0.887276785714286 10.4477083333333  0.863839285714286 10.3927083333333  0.850446428571429 10.360625  C 0.283482142857143 9.054375  0 8.02083333333333  0 7.26  C 0 6.34791666666667  0.118303571428571 5.58479166666667  0.354910714285714 4.970625  C 1.078125 3.12354166666667  3.03125 2.2  6.21428571428572 2.2  L 7.71428571428572 2.2  L 7.71428571428572 0.44  C 7.71428571428572 0.320833333333332  7.75669642857143 0.217708333333332  7.84151785714286 0.130625  C 7.92633928571429 0.0435416666666661  8.02678571428572 0  8.14285714285714 0  C 8.25892857142857 0  8.359375 0.0435416666666661  8.44419642857143 0.130625  L 11.8727678571429 3.650625  Z " fill-rule="nonzero" fill="#aaaaaa" stroke="none" transform="matrix(1 0 0 1 1145 3028 )" />
  </g>
</svg>