<?xml version="1.0" encoding="utf-8"?>
<svg version="1.1" xmlns:xlink="http://www.w3.org/1999/xlink" width="12px" height="11px" xmlns="http://www.w3.org/2000/svg">
  <g transform="matrix(1 0 0 1 -1154 -3080 )">
    <path d="M 11.6450892857143 4.970625  C 11.8816964285714 5.58479166666667  12 6.34791666666667  12 7.26  C 12 8.02083333333333  11.7165178571429 9.054375  11.1495535714286 10.360625  C 11.1361607142857 10.3927083333333  11.1127232142857 10.4477083333333  11.0792410714286 10.525625  C 11.0457589285714 10.6035416666667  11.015625 10.6722916666667  10.9888392857143 10.731875  C 10.9620535714286 10.7914583333333  10.9330357142857 10.841875  10.9017857142857 10.883125  C 10.8482142857143 10.9610416666667  10.7857142857143 11  10.7142857142857 11  C 10.6473214285714 11  10.5948660714286 10.9770833333333  10.5569196428571 10.93125  C 10.5189732142857 10.8854166666667  10.5 10.828125  10.5 10.759375  C 10.5 10.718125  10.5055803571429 10.6573958333333  10.5167410714286 10.5771875  C 10.5279017857143 10.4969791666667  10.5334821428571 10.443125  10.5334821428571 10.415625  C 10.5558035714286 10.1039583333333  10.5669642857143 9.82208333333333  10.5669642857143 9.57  C 10.5669642857143 9.10708333333333  10.5279017857143 8.69229166666667  10.4497767857143 8.325625  C 10.3716517857143 7.95895833333333  10.2633928571429 7.6415625  10.125 7.3734375  C 9.98660714285714 7.1053125  9.80803571428572 6.87385416666667  9.58928571428572 6.6790625  C 9.37053571428572 6.48427083333333  9.13504464285714 6.325  8.8828125 6.20125  C 8.63058035714286 6.0775  8.33370535714286 5.98010416666667  7.9921875 5.9090625  C 7.65066964285714 5.83802083333333  7.30691964285714 5.78875  6.9609375 5.76125  C 6.61495535714286 5.73375  6.22321428571429 5.72  5.78571428571429 5.72  L 4.28571428571429 5.72  L 4.28571428571429 7.48  C 4.28571428571429 7.59916666666667  4.24330357142857 7.70229166666667  4.15848214285714 7.789375  C 4.07366071428571 7.87645833333333  3.97321428571429 7.92  3.85714285714286 7.92  C 3.74107142857143 7.92  3.640625 7.87645833333333  3.55580357142857 7.789375  L 0.127232142857143 4.269375  C 0.0424107142857143 4.18229166666667  0 4.07916666666667  0 3.96  C 0 3.84083333333333  0.0424107142857143 3.73770833333333  0.127232142857143 3.650625  L 3.55580357142857 0.130625  C 3.640625 0.0435416666666661  3.74107142857143 0  3.85714285714286 0  C 3.97321428571429 0  4.07366071428571 0.0435416666666661  4.15848214285714 0.130625  C 4.24330357142857 0.217708333333332  4.28571428571429 0.320833333333332  4.28571428571429 0.44  L 4.28571428571429 2.2  L 5.78571428571429 2.2  C 8.96875 2.2  10.921875 3.12354166666667  11.6450892857143 4.970625  Z " fill-rule="nonzero" fill="#aaaaaa" stroke="none" transform="matrix(1 0 0 1 1154 3080 )" />
  </g>
</svg>