<?xml version="1.0" encoding="utf-8"?>
<svg version="1.1" xmlns:xlink="http://www.w3.org/1999/xlink" width="17px" height="17px" xmlns="http://www.w3.org/2000/svg">
  <g transform="matrix(1 0 0 1 -116 -6358 )">
    <path d="M 8.052475 5.96494583886719  C 8.052475 5.306125  7.51853333886719 4.77197083886719  6.85964166113281 4.77197083886719  C 6.20067916113281 4.77197083886719  5.6667375 5.306125  5.6667375 5.96494583886719  C 5.6667375 6.62405  6.20067916113281 7.15834583886719  6.85964166113281 7.15834583886719  C 7.51853332226563 7.15834583886719  8.052475 6.62405  8.052475 5.96494583886719  Z M 17 8.5  C 17 3.8056625  13.1943375 0  8.5 0  C 3.8056625 0  0 3.8056625  0 8.5  C 0 13.1943375  3.8056625 17  8.5 17  C 13.1943375 17  17 13.1943375  17 8.5  Z M 6.18552083886719 15.5067625  C 4.4618625 14.9375458388672  3.01948333886719 13.7510875  2.120325 12.2090458388672  C 2.84835 11.7841875  3.69332083886719 11.5386083388672  4.59715416113281 11.5386083388672  C 5.6875625 11.5386083388672  6.69339582226563 11.8949708388672  7.50904166113281 12.494575  C 6.84622057848564 13.3859005287608  6.39374234789188 14.4156911049933  6.18552083886719 15.5067625  Z M 15.5502541611328 10.7379083388672  C 14.6015125 13.7192833388672  11.8075625 15.8799833388672  8.5085 15.8799833388672  C 8.00097916113281 15.8799833388672  7.50557083886719 15.828275  7.02702083886719 15.7315166611328  C 7.57612083886719 12.6905  10.2313791777344 10.3809791611328  13.433825 10.3809791611328  C 14.1755208388672 10.3809791611328  14.886475 10.5088333222656  15.5502541611328 10.7379083388672  Z M 15.7638875 9.89647916113281  C 15.0307625 9.651325  14.2494 9.51270416113281  13.433825 9.51270416113281  C 11.3165458388672 9.51270416113281  9.4105625 10.4033625  8.06614583886719 11.8295916611328  C 7.09912917773438 11.10355  5.89985 10.6704041611328  4.59708333886719 10.6704041611328  C 3.5519375 10.6704041611328  2.5748625 10.95225  1.7286875 11.4360416611328  C 1.33761666113281 10.5362458222656  1.1203 9.54344582226562  1.1203 8.50007083886719  C 1.1203 4.42439167773438  4.42814583886719 1.12022917773438  8.5085 1.12022916113281  C 12.5888541611328 1.12022914453125  15.8964166611328 4.42432083886719  15.8964166611328 8.5  C 15.8964166611328 8.97755833886719  15.8506583222656 9.44435  15.7638875 9.89647916113281  Z " fill-rule="nonzero" fill="#555555" stroke="none" transform="matrix(1 0 0 1 116 6358 )" />
  </g>
</svg>