<?xml version="1.0" encoding="utf-8"?>
<svg version="1.1" xmlns:xlink="http://www.w3.org/1999/xlink" width="18px" height="17px" xmlns="http://www.w3.org/2000/svg">
  <g transform="matrix(1 0 0 1 -239 -6358 )">
    <path d="M 0.00546612650606361 11.7156487264864  C 0.00546612650606361 14.085965554548  1.59940973966628 16.1605621872918  3.89121261221567 16.7731404146436  C 4.33608526738999 16.8924645503981  4.79489130913697 16.9521266265294  5.25668305887537 16.9521266265294  C 6.64904298989859 16.9486876810337  7.98312018897342 16.3932799779551  8.96594572891998 15.4078733695863  C 9.94956479273646 16.395622504631  11.2866414167284 16.9509558410861  12.681226923282 16.9509558410861  C 15.5757172511948 16.9509558410861  17.9221652776357 14.6065661023877  17.9221652776357 11.7146148010783  C 17.9221652776357 9.33849945810222  16.3208581117587 7.26023421212129  14.0217692790659 6.65246456399301  C 14.1421497243049 6.20732213962781  14.2031316154608 5.74823859474817  14.2031316154608 5.28713359898575  C 14.2031316154608 2.39628064981622  11.8575747610842 0.0527813014522435  8.96418374962391 0.0527813014522435  C 6.07079273816362 0.0527813014522435  3.72523588378704 2.39628064981622  3.72523588378704 5.28713359898575  C 3.72523588378704 5.74892831357598  3.78640033737606 6.20869246693968  3.90713645426007 6.65445328995922  L 3.9051459822658 6.65445328995922  C 1.60648167030818 7.26209881567334  0.00546612650606361 9.33997517060857  0.00546612650606361 11.7156487264864  Z M 16.8293437407061 10.6746824587299  C 17.1283212655285 11.7468289742601  16.9705675188281 12.8947582305741  16.3934282425511 13.8467158593902  C 15.1911772925043 15.8434064857254  12.5189555873768 16.5305146581861  10.4369117199978 15.3780423315207  C 10.0587158714677 15.1700408293685  9.71385088713062 14.9065913129368  9.4138041251308 14.5964692134395  C 10.3924593505516 13.0764839241548  10.5184551045708 11.1600221416876  9.74720980338161 9.52519323752185  L 9.55313784215454 9.11054185958439  L 9.48148050338712 8.96834725966207  C 10.2975780029741 8.05154011555642  11.4132430082062 7.58418723538551  12.7110370766096 7.58418721887745  C 12.8404183840943 7.58418721887745  12.9717901800958 7.59015342979219  13.1011714875805 7.60109147213051  C 13.6983159938316 7.66572537968537  14.2755556975271 7.84769469702855  14.7960666685025 8.13606136531365  C 15.7865571798439 8.67604384459232  16.5187058796735 9.59060603758722  16.8283485047089 10.6746824587299  Z M 13.2663814727102 5.32796659933968  C 13.2663814727102 5.76051661002136  13.202686054965 6.19008351524568  13.0752952359971 6.60274616721694  C 11.2337983537949 6.55603172569648  9.48871236316095 7.42371298149967  8.41557754585009 8.9196232258691  L 8.14487203282481 9.29748300835114  L 8.08316708707386 9.39493105942901  C 6.87096372748802 9.17020393571567  5.87970383323236 8.49303942610215  5.24274968882525 7.38929111672169  C 5.17189408338436 7.26557481723845  5.1071263261239 7.1384758870515  5.04867772759817 7.00844824529035  L 5.04171104257311 6.99253835502039  C 4.81944807158191 6.46567693713158  4.70494516448573 5.899707224016  4.70494516448573 5.32795802040815  C 4.70494516448573 2.96436537313009  6.6201874889967 1.04697045525053  8.98585054799802 1.04224120994368  C 11.3509818218794 1.04772395514482  13.2653926027998 2.96490364152049  13.2653862367131 5.32796659933968  Z M 1.06472856749463 10.5732569392115  C 1.47496732492088 9.04041471245581  2.70033120084336 7.86013735762756  4.24850407005563 7.50662652651  C 5.12335327500577 9.12005240518005  6.74060684064268 10.1964069541684  8.56784939692681 10.3813439425131  L 9.26352274604835 10.4330510817635  C 9.26451798204549 10.4330510817635  9.26551323456518 10.4330510817635  9.26551323456518 10.4350398077297  C 9.67455722861706 11.5944727082929  9.46655188081731 12.7916915838027  8.83158822492702 13.8944455302  C 8.76045763421508 14.0174272961841  8.68340190413146 14.1368916358275  8.60069233353527 14.2524179374636  L 8.5678493969268 14.2981588657992  C 7.75975000070769 15.3435277644646  6.51237196573874 15.9556856423295  5.19035060424939 15.9556856423295  C 3.6636691325883 15.9556856423295  2.2532776868342 15.1408666361264  1.49168690863028 13.8188735637988  C 0.922267002259127 12.8370641227196  0.768239085347283 11.6689103918197  1.06373333149749 10.5732569392115  Z " fill-rule="nonzero" fill="#555555" stroke="none" transform="matrix(1 0 0 1 239 6358 )" />
  </g>
</svg>