<?xml version="1.0" encoding="utf-8"?>
<svg version="1.1" xmlns:xlink="http://www.w3.org/1999/xlink" width="10px" height="293px" preserveAspectRatio="xMidYMin meet" viewBox="326 3072  8 293" xmlns="http://www.w3.org/2000/svg">
  <path d="M 359 3077  L 335 3077  A 5 5 0 0 0 330 3082 L 330 3190  A 3 3 0 0 1 333 3193 A 3 3 0 0 1 330 3196 L 330 3355  A 5 5 0 0 1 325 3360 L 305 3360  A 5 5 0 0 0 300 3365 L 300 4255  A 5 5 0 0 1 295 4260 L 280 4260  A 5 5 0 0 0 275 4265 L 275 4321  " stroke-width="2" stroke="#d9001b" fill="none" />
  <path d="M 267.4 4320  L 275 4327  L 282.6 4320  L 267.4 4320  Z " fill-rule="nonzero" fill="#d9001b" stroke="none" />
</svg>