<?xml version="1.0" encoding="utf-8"?>
<svg version="1.1" xmlns:xlink="http://www.w3.org/1999/xlink" width="20px" height="20px" preserveAspectRatio="xMinYMid meet" viewBox="265 4313  20 18" xmlns="http://www.w3.org/2000/svg">
  <path d="M 359 3129  L 335 3129  A 5 5 0 0 0 330 3134 L 330 3242  A 3 3 0 0 1 333 3245 A 3 3 0 0 1 330 3248 L 330 3405  A 5 5 0 0 1 325 3410 L 305 3410  A 5 5 0 0 0 300 3415 L 300 4255  A 5 5 0 0 1 295 4260 L 280 4260  A 5 5 0 0 0 275 4265 L 275 4321  " stroke-width="2" stroke="#d9001b" fill="none" />
  <path d="M 267.4 4320  L 275 4327  L 282.6 4320  L 267.4 4320  Z " fill-rule="nonzero" fill="#d9001b" stroke="none" />
</svg>