<?xml version="1.0" encoding="utf-8"?>
<svg version="1.1" xmlns:xlink="http://www.w3.org/1999/xlink" width="12px" height="4px" xmlns="http://www.w3.org/2000/svg">
  <g transform="matrix(1 0 0 1 -451 -3031 )">
    <path d="M 11.77734375 0.131944444444445  C 11.92578125 0.219907407407407  12 0.324074074074073  12 0.444444444444445  C 12 0.564814814814814  11.92578125 0.668981481481481  11.77734375 0.756944444444445  L 6.52734375 3.86805555555556  C 6.37890625 3.95601851851852  6.203125 4  6 4  C 5.796875 4  5.62109375 3.95601851851852  5.47265625 3.86805555555556  L 0.22265625 0.756944444444445  C 0.07421875 0.668981481481481  0 0.564814814814814  0 0.444444444444445  C 0 0.324074074074073  0.07421875 0.219907407407407  0.22265625 0.131944444444445  C 0.37109375 0.043981481481481  0.546875 0  0.75 0  L 11.25 0  C 11.453125 0  11.62890625 0.043981481481481  11.77734375 0.131944444444445  Z " fill-rule="nonzero" fill="#333333" stroke="none" transform="matrix(1 0 0 1 451 3031 )" />
  </g>
</svg>