<?xml version="1.0" encoding="utf-8"?>
<svg version="1.1" xmlns:xlink="http://www.w3.org/1999/xlink" width="11px" height="12px" xmlns="http://www.w3.org/2000/svg">
  <g transform="matrix(1 0 0 1 -1088 -3081 )">
    <path d="M 10.8109965635739 0.721442885771542  C 10.9369988545246 0.801603206412824  11 0.893787575150299  11 0.997995991983968  C 11 1.10220440881763  10.9369988545246 1.19438877755511  10.8109965635739 1.27454909819639  L 3.38316151202749 6  L 10.8109965635739 10.7254509018036  C 10.9369988545246 10.8056112224449  11 10.8977955911824  11 11.002004008016  C 11 11.1062124248497  10.9369988545246 11.1983967935872  10.8109965635739 11.2785571142285  L 9.8659793814433 11.8797595190381  C 9.73997709049256 11.9599198396794  9.5950744558992 12  9.43127147766323 12  C 9.26746849942726 12  9.12256586483391 11.9599198396794  8.99656357388316 11.8797595190381  L 0.189003436426117 6.27655310621242  C 0.0630011454753723 6.19639278557114  0 6.10420841683367  0 6  C 0 5.89579158316633  0.0630011454753723 5.80360721442886  0.189003436426117 5.72344689378758  L 8.99656357388316 0.120240480961924  C 9.12256586483391 0.0400801603206409  9.26746849942726 0  9.43127147766323 0  C 9.5950744558992 0  9.73997709049256 0.0400801603206409  9.8659793814433 0.120240480961924  L 10.8109965635739 0.721442885771542  Z " fill-rule="nonzero" fill="#333333" stroke="none" transform="matrix(1 0 0 1 1088 3081 )" />
  </g>
</svg>