<?xml version="1.0" encoding="utf-8"?>
<svg version="1.1" xmlns:xlink="http://www.w3.org/1999/xlink" width="14px" height="12px" xmlns="http://www.w3.org/2000/svg">
  <g transform="matrix(1 0 0 1 -334 -4624 )">
    <path d="M 14 6  C 14 3.87915  12.20921875 2.16  10 2.16  L 7.71140625 2.16  L 9.5065625 0.95325  C 9.54017847082066 0.930821138776641  9.56022394486412 0.894011701485595  9.56022394486412 0.854711667337443  C 9.56022394486412 0.830196627688724  9.55240270827395 0.806269699973287  9.5378125 0.78615  L 9.0359375 0.0979500000000005  C 9.01257410289233 0.0656786680121634  8.97423093904749 0.0464350129304453  8.9332934034765 0.0464350129304453  C 8.90775690384242 0.0464350129304453  8.88283302080551 0.0539434000570036  8.861875 0.0679500000000005  L 5.75 2.16  L 5.75 3.12  C 5.75 3.1862741699797  5.80596440627115 3.24  5.875 3.24  L 10 3.24  C 11.5878186557635 3.24  12.875 4.47569409046701  12.875 6  C 12.875 7.52430590953299  11.5878186557635 8.76  10 8.76  L 10 9.84  C 12.20921875 9.84  14 8.1207  14 6  Z M 8.2540625 8.88  C 8.2540625 8.8137258300203  8.19809809372885 8.76  8.1290625 8.76  L 4.0040625 8.76  C 2.41624384423647 8.76  1.1290625 7.52430590953299  1.1290625 6  C 1.1290625 4.47569409046701  2.41624384423647 3.24  4.0040625 3.24  L 4.0040625 2.16  C 1.79484375 2.16  0.00406249999999986 3.8793  0.00406249999999986 6  C 0.00406249999999986 8.1207  1.79484375 9.84  4.0040625 9.84  L 6.29265625 9.84  L 4.4946875 11.04855  C 4.46107152917934 11.0709788612234  4.44102605513588 11.1077882985144  4.44102605513588 11.1470883326626  C 4.44102605513588 11.1716033723113  4.44884729172605 11.1955303000267  4.4634375 11.21565  L 4.96546875 11.90385  C 4.98883214710767 11.9361213319878  5.02717531095251 11.9553649870696  5.0681128465235 11.9553649870696  C 5.09364934615758 11.9553649870696  5.11857322919449 11.947856599943  5.13953125 11.93385  L 8.2540625 9.84  L 8.2540625 8.88  Z " fill-rule="nonzero" fill="#555555" stroke="none" transform="matrix(1 0 0 1 334 4624 )" />
  </g>
</svg>