<?xml version="1.0" encoding="utf-8"?>
<svg version="1.1" xmlns:xlink="http://www.w3.org/1999/xlink" width="24px" height="24px" xmlns="http://www.w3.org/2000/svg">
  <g transform="matrix(1 0 0 1 -263 -4618 )">
    <path d="M 275 4619  C 281.16 4619  286 4623.84  286 4630  C 286 4636.16  281.16 4641  275 4641  C 268.84 4641  264 4636.16  264 4630  C 264 4623.84  268.84 4619  275 4619  Z " fill-rule="nonzero" fill="#ffffff" stroke="none" />
    <path d="M 275 4619  C 281.16 4619  286 4623.84  286 4630  C 286 4636.16  281.16 4641  275 4641  C 268.84 4641  264 4636.16  264 4630  C 264 4623.84  268.84 4619  275 4619  Z " stroke-width="2" stroke="#555555" fill="none" />
  </g>
</svg>