<?xml version="1.0" encoding="utf-8"?>
<svg version="1.1" xmlns:xlink="http://www.w3.org/1999/xlink" width="8px" height="14px" xmlns="http://www.w3.org/2000/svg">
  <g transform="matrix(1 0 0 1 -214 -4346 )">
    <path d="M 7.5902004454343 3.55889423076923  C 7.70304380103935 3.55889423076923  7.80400890868597 3.60096153846154  7.89309576837416 3.68509615384615  C 8 3.79727564102564  8.02078693392725 3.92067307692308  7.9554565701559 4.05528846153846  L 3.14476614699332 13.7896634615385  C 3.06755753526355 13.9298878205128  2.94283593170007 14  2.7706013363029 14  C 2.74684484038604 14  2.70527097253155 13.994391025641  2.64587973273942 13.9831730769231  C 2.5449146250928 13.9551282051282  2.46919079435783 13.901842948718  2.41870824053452 13.8233173076923  C 2.36822568671121 13.7447916666667  2.35486265775798 13.6606570512821  2.37861915367483 13.5709134615385  L 4.13363028953229 6.77283653846154  L 0.516703786191537 7.62259615384615  C 0.492947290274684 7.62820512820513  0.457312546399406 7.63100961538462  0.409799554565702 7.63100961538462  C 0.302895322939866 7.63100961538462  0.210838901262064 7.60016025641026  0.133630289532294 7.53846153846154  C 0.0267260579064588 7.45432692307692  -0.0118782479584261 7.34495192307692  0.0178173719376392 7.21033653846154  L 1.80846325167038 0.26923076923077  C 1.83221974758723 0.190705128205128  1.87973273942094 0.126201923076924  1.95100222717149 0.075721153846154  C 2.02227171492205 0.0252403846153841  2.10541945063103 0  2.20044543429844 0  L 5.12249443207127 0  C 5.23533778767632 0  5.33036377134373 0.0350560897435879  5.4075723830735 0.10516826923077  C 5.48478099480327 0.175280448717949  5.52338530066815 0.25801282051282  5.52338530066815 0.353365384615384  C 5.52338530066815 0.398237179487179  5.50853749072012 0.448717948717949  5.47884187082405 0.504807692307692  L 3.9554565701559 4.40024038461538  L 7.48329621380846 3.57572115384615  C 7.53080920564217 3.5645032051282  7.56644394951745 3.55889423076923  7.5902004454343 3.55889423076923  Z " fill-rule="nonzero" fill="#555555" stroke="none" transform="matrix(1 0 0 1 214 4346 )" />
  </g>
</svg>